<svg width="107" height="32" viewBox="0 0 107 32" fill="none" xmlns="http://www.w3.org/2000/svg">
<mask id="mask0_295_216" style="mask-type:alpha" maskUnits="userSpaceOnUse" x="0" y="0" width="107" height="32">
<path d="M4.2751 31.4144C2.23576 31.4144 0.575806 29.762 0.575806 27.7392V4.02395C0.575806 2.00038 2.23576 0.354187 4.2751 0.354187H102.423C104.462 0.354187 106.181 2.00038 106.181 4.02395V27.7392C106.181 29.762 104.462 31.4144 102.423 31.4144H4.2751Z" fill="white"/>
</mask>
<g mask="url(#mask0_295_216)">
<path d="M4.27522 31.1051C2.40568 31.1051 0.88653 29.59 0.88653 27.7405V4.02523C0.88653 2.17557 2.40504 0.666071 4.27522 0.666071H102.424C104.299 0.666071 105.87 2.18181 105.87 4.02523V27.7405C105.87 29.5838 104.299 31.1051 102.424 31.1051H4.27522Z" fill="white" stroke="#306FD5" stroke-width="0.621205"/>
<path fill-rule="evenodd" clip-rule="evenodd" d="M42.1656 24.8181H40.3786L39.3997 21.7828H35.9974L35.0649 24.8181H33.3252L36.6961 14.4844H38.7781L42.1656 24.8181ZM39.1047 20.5093L38.2195 17.8109C38.1258 17.5353 37.9504 16.8861 37.6915 15.8642H37.66C37.5569 16.3037 37.3909 16.9529 37.1627 17.8109L36.2932 20.5093H39.1047ZM50.8344 21.0008C50.8344 22.2681 50.4874 23.2698 49.7934 24.0051C49.1718 24.6597 48.3998 24.9866 47.4784 24.9866C46.4838 24.9866 45.7694 24.6341 45.3342 23.929H45.3028V27.8543H43.6252V19.8198C43.6252 19.0231 43.6039 18.2054 43.563 17.3668H45.0384L45.132 18.5478H45.1635C45.723 17.658 46.572 17.2138 47.7113 17.2138C48.6021 17.2138 49.3457 17.5609 49.9405 18.2559C50.537 18.9516 50.8344 19.8663 50.8344 21.0008ZM49.1253 21.0614C49.1253 20.3361 48.9601 19.7382 48.628 19.2677C48.2653 18.7769 47.7782 18.5315 47.1676 18.5315C46.7537 18.5315 46.3776 18.6682 46.0416 18.9376C45.7049 19.2094 45.4845 19.5643 45.3815 20.0038C45.3295 20.2088 45.3036 20.3765 45.3036 20.5085V21.7509C45.3036 22.2929 45.4719 22.7503 45.8087 23.1238C46.1455 23.4973 46.583 23.6837 47.1212 23.6837C47.753 23.6837 48.2448 23.4429 48.5966 22.9631C48.9491 22.4824 49.1253 21.8488 49.1253 21.0614ZM59.519 21.0008C59.519 22.2681 59.1719 23.2698 58.4772 24.0051C57.8563 24.6597 57.0844 24.9866 56.163 24.9866C55.1684 24.9866 54.4539 24.6341 54.0196 23.929H53.9881V27.8543H52.3105V19.8198C52.3105 19.0231 52.2893 18.2054 52.2484 17.3668H53.7237L53.8174 18.5478H53.8488C54.4075 17.658 55.2565 17.2138 56.3967 17.2138C57.2866 17.2138 58.0302 17.5609 58.6267 18.2559C59.2207 18.9516 59.519 19.8663 59.519 21.0008ZM57.8099 21.0614C57.8099 20.3361 57.6439 19.7382 57.3118 19.2677C56.9491 18.7769 56.4636 18.5315 55.8522 18.5315C55.4375 18.5315 55.0622 18.6682 54.7254 18.9376C54.3886 19.2094 54.1691 19.5643 54.066 20.0038C54.0149 20.2088 53.9881 20.3765 53.9881 20.5085V21.7509C53.9881 22.2929 54.1565 22.7503 54.4917 23.1238C54.8285 23.4965 55.266 23.6837 55.8058 23.6837C56.4376 23.6837 56.9294 23.4429 57.2811 22.9631C57.6336 22.4824 57.8099 21.8488 57.8099 21.0614ZM69.2288 21.9202C69.2288 22.7992 68.9196 23.5144 68.2987 24.0665C67.6165 24.6698 66.6668 24.9711 65.4464 24.9711C64.3196 24.9711 63.4163 24.7568 62.7325 24.3274L63.1212 22.9475C63.8577 23.387 64.6658 23.6076 65.5463 23.6076C66.1781 23.6076 66.6699 23.4662 67.0232 23.1851C67.375 22.904 67.5504 22.5267 67.5504 22.0561C67.5504 21.6368 67.4056 21.2835 67.1153 20.9969C66.8265 20.7104 66.3442 20.4441 65.6706 20.1979C63.8372 19.5231 62.9213 18.5346 62.9213 17.2348C62.9213 16.3853 63.2424 15.6887 63.8852 15.1467C64.5257 14.604 65.3803 14.333 66.4488 14.333C67.4017 14.333 68.1933 14.4968 68.8251 14.8237L68.4057 16.1733C67.8156 15.8565 67.1483 15.6981 66.4016 15.6981C65.8115 15.6981 65.3504 15.8417 65.0199 16.1275C64.7406 16.3829 64.6005 16.6943 64.6005 17.0632C64.6005 17.4716 64.7602 17.8094 65.0813 18.075C65.3606 18.3203 65.8681 18.5859 66.6046 18.8724C67.5056 19.2304 68.1673 19.6489 68.593 20.1288C69.0171 20.6071 69.2288 21.2058 69.2288 21.9202ZM74.7754 18.6092H72.9262V22.2269C72.9262 23.1471 73.252 23.6068 73.9051 23.6068C74.2049 23.6068 74.4535 23.5812 74.6503 23.5299L74.6967 24.7871C74.3662 24.909 73.9311 24.9703 73.3921 24.9703C72.7295 24.9703 72.2118 24.7708 71.838 24.3724C71.4658 23.9733 71.2786 23.3039 71.2786 22.3636V18.6076H70.177V17.3652H71.2786V16.0009L72.9262 15.5102V17.3652H74.7754V18.6092ZM83.1184 21.0311C83.1184 22.1765 82.7864 23.1168 82.1238 23.8522C81.4291 24.6092 80.5069 24.9866 79.3573 24.9866C78.2494 24.9866 77.3673 24.624 76.7095 23.8987C76.0517 23.1735 75.7227 22.258 75.7227 21.1546C75.7227 19.9999 76.0611 19.0541 76.7402 18.3188C77.4176 17.5826 78.332 17.2146 79.4816 17.2146C80.5895 17.2146 81.481 17.5772 82.1537 18.3032C82.7974 19.0075 83.1184 19.9168 83.1184 21.0311ZM81.3779 21.0847C81.3779 20.3975 81.2292 19.8081 80.9278 19.3166C80.5761 18.7218 80.0733 18.4252 79.4218 18.4252C78.7474 18.4252 78.2352 18.7226 77.8835 19.3166C77.5821 19.8089 77.4334 20.4076 77.4334 21.1157C77.4334 21.803 77.5821 22.3923 77.8835 22.8831C78.2462 23.4779 78.7529 23.7745 79.4068 23.7745C80.0473 23.7745 80.5501 23.4717 80.9129 22.8675C81.2221 22.3667 81.3779 21.7711 81.3779 21.0847ZM88.5714 18.8227C88.4053 18.7924 88.2283 18.7769 88.0426 18.7769C87.4525 18.7769 86.9961 18.9967 86.675 19.4369C86.3957 19.8252 86.2556 20.3159 86.2556 20.9084V24.8181H84.5788L84.5946 19.7134C84.5946 18.8546 84.5733 18.0726 84.5316 17.3676H85.9928L86.0542 18.7932H86.1006C86.2777 18.3032 86.557 17.9088 86.9394 17.6129C87.3132 17.3466 87.7168 17.2138 88.152 17.2138C88.307 17.2138 88.4471 17.2247 88.5714 17.2441V18.8227ZM96.0741 20.7399C96.0741 21.0365 96.0544 21.2866 96.0127 21.4908H90.9799C90.9996 22.2269 91.2428 22.7899 91.7102 23.1781C92.1343 23.5252 92.6827 23.6992 93.3563 23.6992C94.1014 23.6992 94.7813 23.5819 95.3927 23.3466L95.6555 24.4959C94.941 24.8034 94.0975 24.9563 93.1241 24.9563C91.9533 24.9563 91.0342 24.6162 90.3654 23.9368C89.6982 23.2573 89.3637 22.345 89.3637 21.2004C89.3637 20.0768 89.6745 19.1411 90.297 18.3949C90.9485 17.5982 91.829 17.1998 92.9369 17.1998C94.0251 17.1998 94.8489 17.5982 95.4084 18.3949C95.8514 19.0277 96.0741 19.8104 96.0741 20.7399ZM94.4744 20.3105C94.4854 19.8198 94.376 19.3958 94.1486 19.0378C93.8583 18.5774 93.4121 18.3475 92.8118 18.3475C92.2633 18.3475 91.8172 18.5719 91.4765 19.0223C91.1971 19.3803 91.0311 19.8097 90.9799 20.3097H94.4744V20.3105ZM38.5499 8.12714C38.5499 9.04108 38.2722 9.72907 37.7174 10.1911C37.2036 10.6174 36.4734 10.8309 35.5276 10.8309C35.0586 10.8309 34.6573 10.8107 34.3214 10.7704V5.77665C34.7596 5.70677 35.2318 5.67105 35.7416 5.67105C36.6426 5.67105 37.3217 5.8644 37.7796 6.2511C38.2926 6.68827 38.5499 7.31336 38.5499 8.12714ZM37.6805 8.14965C37.6805 7.55718 37.5215 7.10293 37.2036 6.78611C36.8857 6.47007 36.4215 6.31167 35.8101 6.31167C35.5504 6.31167 35.3293 6.32875 35.146 6.36447V10.1608C35.2475 10.1763 35.4332 10.1833 35.7031 10.1833C36.3341 10.1833 36.8212 10.0102 37.1643 9.66384C37.5074 9.31752 37.6805 8.81279 37.6805 8.14965ZM43.1601 8.92538C43.1601 9.48835 42.9973 9.94959 42.6715 10.3114C42.33 10.6834 41.8776 10.869 41.3126 10.869C40.7681 10.869 40.3345 10.6912 40.0111 10.334C39.6885 9.97755 39.5272 9.52795 39.5272 8.98595C39.5272 8.4191 39.6932 7.95398 40.0269 7.5929C40.3605 7.23182 40.809 7.0509 41.374 7.0509C41.9185 7.0509 42.356 7.22872 42.6872 7.58514C43.002 7.93146 43.1601 8.37872 43.1601 8.92538ZM42.3048 8.95179C42.3048 8.61401 42.2309 8.32437 42.0837 8.08288C41.9106 7.79091 41.6643 7.64493 41.3441 7.64493C41.0128 7.64493 40.761 7.79091 40.5879 8.08288C40.44 8.32437 40.3668 8.61866 40.3668 8.96654C40.3668 9.30432 40.4408 9.59396 40.5879 9.83545C40.7665 10.1274 41.0152 10.2734 41.3362 10.2734C41.651 10.2734 41.898 10.1251 42.0759 9.82768C42.2285 9.58153 42.3048 9.28957 42.3048 8.95179ZM49.3417 7.12544L48.1811 10.7859H47.4257L46.9449 9.19638C46.823 8.79959 46.7238 8.40512 46.6467 8.01377H46.6318C46.5602 8.416 46.461 8.80968 46.3336 9.19638L45.8229 10.7859H45.0588L43.9675 7.12544H44.8149L45.2343 8.86559C45.3358 9.27714 45.4192 9.66928 45.4861 10.0404H45.5011C45.5624 9.7345 45.6639 9.3447 45.8071 8.87336L46.3336 7.12622H47.0055L47.5099 8.83609C47.6319 9.25307 47.731 9.65452 47.8073 10.0412H47.8302C47.886 9.66462 47.9702 9.26316 48.082 8.83609L48.532 7.12622H49.3417V7.12544ZM53.6167 10.7859H52.7921V8.68933C52.7921 8.04327 52.5434 7.72025 52.0446 7.72025C51.7999 7.72025 51.6024 7.80877 51.4489 7.98659C51.2971 8.16441 51.2199 8.37406 51.2199 8.61401V10.7851H50.3953V8.1714C50.3953 7.84992 50.3851 7.50127 50.3654 7.12389H51.0901L51.1287 7.69618H51.1515C51.2475 7.51836 51.3907 7.3716 51.5788 7.25434C51.8022 7.11768 52.0524 7.04857 52.3263 7.04857C52.6725 7.04857 52.9605 7.15883 53.1895 7.38014C53.4743 7.65114 53.6167 8.0557 53.6167 8.59304V10.7859ZM55.8907 10.7859H55.0669V5.44586H55.8907V10.7859ZM60.7457 8.92538C60.7457 9.48835 60.5828 9.94959 60.257 10.3114C59.9155 10.6834 59.4623 10.869 58.8981 10.869C58.3528 10.869 57.9193 10.6912 57.5967 10.334C57.274 9.97755 57.1127 9.52795 57.1127 8.98595C57.1127 8.4191 57.2788 7.95398 57.6124 7.5929C57.946 7.23182 58.3945 7.0509 58.9587 7.0509C59.504 7.0509 59.9407 7.22872 60.2728 7.58514C60.5875 7.93146 60.7457 8.37872 60.7457 8.92538ZM59.8896 8.95179C59.8896 8.61401 59.8156 8.32437 59.6685 8.08288C59.4961 7.79091 59.2491 7.64493 58.9296 7.64493C58.5975 7.64493 58.3457 7.79091 58.1734 8.08288C58.0255 8.32437 57.9523 8.61866 57.9523 8.96654C57.9523 9.30432 58.0263 9.59396 58.1734 9.83545C58.352 10.1274 58.6007 10.2734 58.9217 10.2734C59.2365 10.2734 59.4828 10.1251 59.6606 9.82768C59.814 9.58153 59.8896 9.28957 59.8896 8.95179ZM64.7366 10.7859H63.9962L63.9348 10.3642H63.912C63.6586 10.7005 63.2974 10.869 62.8285 10.869C62.4783 10.869 62.1951 10.7579 61.9818 10.5374C61.7883 10.3371 61.6915 10.0878 61.6915 9.79196C61.6915 9.3447 61.8803 9.00381 62.2604 8.76775C62.6396 8.5317 63.1731 8.416 63.8601 8.42143V8.3531C63.8601 7.87089 63.6035 7.63017 63.0897 7.63017C62.7238 7.63017 62.4012 7.72102 62.1227 7.90117L61.9551 7.36694C62.2997 7.1565 62.7254 7.0509 63.2274 7.0509C64.1968 7.0509 64.6831 7.55563 64.6831 8.56509V9.9131C64.6831 10.2788 64.7012 10.57 64.7366 10.7859ZM63.8805 9.52795V8.96343C62.9709 8.9479 62.5161 9.19406 62.5161 9.70111C62.5161 9.89213 62.568 10.035 62.6743 10.1305C62.7805 10.226 62.9158 10.2734 63.0771 10.2734C63.2581 10.2734 63.4273 10.2167 63.5815 10.1041C63.7365 9.99075 63.8317 9.8471 63.8671 9.67083C63.8758 9.63123 63.8805 9.58308 63.8805 9.52795ZM69.4224 10.7859H68.6906L68.652 10.1981H68.6292C68.3955 10.6453 67.9974 10.869 67.4379 10.869C66.991 10.869 66.6188 10.6958 66.3237 10.3495C66.0286 10.0032 65.8815 9.55358 65.8815 9.00148C65.8815 8.40901 66.0412 7.92913 66.3623 7.56262C66.6731 7.22095 67.0539 7.05012 67.5071 7.05012C68.0052 7.05012 68.3538 7.21552 68.5521 7.54709H68.5678V5.44586H69.3932V9.79973C69.3932 10.1561 69.4027 10.4846 69.4224 10.7859ZM68.5678 9.2422V8.63186C68.5678 8.52626 68.56 8.44084 68.545 8.37562C68.4986 8.17994 68.3987 8.01532 68.2468 7.88254C68.0934 7.74975 67.9084 7.68298 67.6952 7.68298C67.3875 7.68298 67.1468 7.80333 66.9697 8.04483C66.7943 8.28632 66.7053 8.59459 66.7053 8.9712C66.7053 9.33305 66.7895 9.62657 66.9587 9.85253C67.1373 10.0932 67.3781 10.2136 67.6795 10.2136C67.9502 10.2136 68.1665 10.1134 68.331 9.91232C68.4899 9.72674 68.5678 9.5031 68.5678 9.2422ZM76.475 8.92538C76.475 9.48835 76.3121 9.94959 75.9863 10.3114C75.6448 10.6834 75.1932 10.869 74.6274 10.869C74.0837 10.869 73.6502 10.6912 73.326 10.334C73.0034 9.97755 72.8421 9.52795 72.8421 8.98595C72.8421 8.4191 73.0081 7.95398 73.3417 7.5929C73.6753 7.23182 74.1238 7.0509 74.6896 7.0509C75.2333 7.0509 75.6716 7.22872 76.0021 7.58514C76.3168 7.93146 76.475 8.37872 76.475 8.92538ZM75.6204 8.95179C75.6204 8.61401 75.5465 8.32437 75.3993 8.08288C75.2255 7.79091 74.9799 7.64493 74.6589 7.64493C74.3284 7.64493 74.0766 7.79091 73.9027 8.08288C73.7548 8.32437 73.6816 8.61866 73.6816 8.96654C73.6816 9.30432 73.7556 9.59396 73.9027 9.83545C74.0814 10.1274 74.33 10.2734 74.651 10.2734C74.9658 10.2734 75.2136 10.1251 75.3915 9.82768C75.5433 9.58153 75.6204 9.28957 75.6204 8.95179ZM80.9089 10.7859H80.0851V8.68933C80.0851 8.04327 79.8364 7.72025 79.3368 7.72025C79.0921 7.72025 78.8946 7.80877 78.7419 7.98659C78.5893 8.16441 78.5129 8.37406 78.5129 8.61401V10.7851H77.6875V8.1714C77.6875 7.84992 77.6781 7.50127 77.6584 7.12389H78.3823L78.4209 7.69618H78.4437C78.5405 7.51836 78.6837 7.3716 78.871 7.25434C79.0952 7.11768 79.3447 7.04857 79.6193 7.04857C79.9647 7.04857 80.2527 7.15883 80.4817 7.38014C80.7673 7.65114 80.9089 8.0557 80.9089 8.59304V10.7859ZM86.4587 7.735H85.5506V9.5132C85.5506 9.96513 85.7119 10.1911 86.0314 10.1911C86.1793 10.1911 86.3021 10.1787 86.3989 10.153L86.4201 10.7704C86.2572 10.8309 86.0432 10.8612 85.7796 10.8612C85.4538 10.8612 85.2005 10.7634 85.0171 10.5677C84.833 10.372 84.7417 10.0428 84.7417 9.58075V7.735H84.1996V7.12544H84.7417V6.45454L85.5498 6.21383V7.12467H86.4579V7.735H86.4587ZM90.8242 10.7859H89.9987V8.70486C89.9987 8.04871 89.7501 7.72025 89.252 7.72025C88.8696 7.72025 88.6084 7.91049 88.4651 8.29098C88.4408 8.37096 88.4266 8.4688 88.4266 8.58372V10.7851H87.6027V5.44586H88.4266V7.65191H88.4423C88.702 7.25046 89.0742 7.05012 89.5565 7.05012C89.898 7.05012 90.1805 7.16039 90.4048 7.38169C90.6841 7.65735 90.8242 8.06735 90.8242 8.60935V10.7859ZM95.3273 8.78251C95.3273 8.92849 95.3163 9.05118 95.2967 9.15135H92.8236C92.8346 9.5132 92.9526 9.78886 93.1816 9.97988C93.3909 10.1507 93.6608 10.2361 93.9913 10.2361C94.3571 10.2361 94.6908 10.1787 94.9914 10.063L95.1204 10.6283C94.7687 10.7789 94.3548 10.8542 93.8756 10.8542C93.3012 10.8542 92.8487 10.6873 92.5214 10.3534C92.1925 10.0195 92.0296 9.57144 92.0296 9.00925C92.0296 8.45715 92.1815 7.99746 92.4876 7.63095C92.807 7.23959 93.239 7.04391 93.7843 7.04391C94.3178 7.04391 94.723 7.23959 94.9969 7.63095C95.218 7.94155 95.3273 8.32592 95.3273 8.78251ZM94.5405 8.57207C94.5468 8.33058 94.4925 8.12248 94.3808 7.94699C94.2375 7.72102 94.0196 7.60765 93.7245 7.60765C93.4554 7.60765 93.2359 7.71792 93.0683 7.93922C92.9314 8.11549 92.8503 8.32592 92.8236 8.57207H94.5405Z" fill="#0F2852"/>
<path fill-rule="evenodd" clip-rule="evenodd" d="M23.6608 15.7172C23.6868 18.7168 26.3196 19.7084 26.3518 19.7192C26.3361 19.7891 25.9395 21.1503 24.952 22.5325C24.1274 23.7492 23.2635 24.9388 21.8912 24.9605C20.5583 24.9908 20.1098 24.1864 18.581 24.1864C17.038 24.1864 16.5603 24.9388 15.2817 24.9908C13.9748 25.0382 12.9763 23.6918 12.1218 22.4859C10.4135 20.0236 9.08375 15.5471 10.8667 12.501C11.7307 11.007 13.306 10.0449 14.9898 10.0193C16.2983 9.99291 17.5124 10.8913 18.3166 10.8913C19.105 10.8913 20.6063 9.81665 22.154 9.97738C22.8016 9.99602 24.6444 10.2297 25.8333 11.9404C25.7373 11.997 23.638 13.2146 23.6608 15.7172ZM21.1429 8.35762C20.4253 9.19313 19.2773 9.83218 18.1592 9.74987C18.0129 8.62241 18.5794 7.42351 19.2136 6.69205C19.9304 5.86199 21.1752 5.22604 22.1705 5.18256C22.3011 6.35428 21.8306 7.50892 21.1429 8.35762Z" fill="#0F2852"/>
</g>
</svg>
