<svg width="106" height="32" viewBox="0 0 106 32" fill="none" xmlns="http://www.w3.org/2000/svg">
<rect width="106" height="32" fill="#F5F5F5"/>
<g clip-path="url(#clip0_0_1)">
<rect width="1920" height="1080" transform="translate(-1380 -793)" fill="white"/>
<rect width="1920" height="402" transform="translate(-1364 -160)" fill="white"/>
<rect x="-26.2961" y="-104" width="274" height="277" rx="20" fill="#F2F8FD"/>
<g clip-path="url(#clip1_0_1)">
<mask id="mask0_0_1" style="mask-type:alpha" maskUnits="userSpaceOnUse" x="0" y="0" width="106" height="32">
<path d="M3.92671 31.4144C1.88737 31.4144 0.227417 29.762 0.227417 27.7392V4.02395C0.227417 2.00038 1.88737 0.354187 3.92671 0.354187H102.075C104.114 0.354187 105.832 2.00038 105.832 4.02395V27.7392C105.832 29.762 104.114 31.4144 102.075 31.4144H3.92671Z" fill="white"/>
</mask>
<g mask="url(#mask0_0_1)">
<path d="M3.92684 31.1042C2.05729 31.1042 0.538141 29.5892 0.538141 27.7396V4.02438C0.538141 2.17472 2.05665 0.665217 3.92684 0.665217H102.075C103.951 0.665217 105.522 2.18096 105.522 4.02438V27.7396C105.522 29.5829 103.95 31.1042 102.075 31.1042H3.92684Z" fill="white" stroke="#306FD5" stroke-width="0.621205"/>
<path fill-rule="evenodd" clip-rule="evenodd" d="M94.3345 26.3037H92.824L94.2988 23.0329L91.7133 17.1518H93.2734L94.9965 21.3587H95.0431L96.7033 17.1518H98.3139L94.3345 26.3037ZM90.2153 22.5959H90.1657C89.7685 23.2253 89.0605 23.589 88.3176 23.5451C87.7132 23.59 87.1165 23.3884 86.6632 22.9861C86.2099 22.5839 85.9387 22.0153 85.9115 21.4099C85.9115 19.9872 87.3225 19.2258 88.7057 19.2258C89.2323 19.2245 89.751 19.3529 90.2161 19.5999V19.5005C90.1381 18.7364 89.4579 18.1786 88.6933 18.2517C88.1499 18.2049 87.6304 18.4843 87.3699 18.9634L86.0845 18.4263C86.5733 17.461 87.5883 16.8777 88.6684 16.9415C90.3286 16.9415 91.6179 17.9024 91.6179 19.6247V23.3449H90.2208V22.5959H90.2153ZM88.892 20.3993C88.1802 20.3993 87.3567 20.6865 87.3567 21.4355C87.4513 21.9716 87.9541 22.336 88.493 22.259C89.37 22.2493 90.1053 21.5939 90.2153 20.7238C89.8113 20.499 89.3542 20.3869 88.892 20.3993ZM83.6614 13.6583H85.1081V23.3612H83.6598V13.6591L83.6614 13.6583ZM79.6796 19.6853H77.6569V23.3612H76.2093V13.6591H79.6796C80.796 13.597 81.8553 14.1573 82.4322 15.1151C83.0092 16.073 83.0092 17.2713 82.4322 18.2292C81.8553 19.187 80.796 19.7473 79.6796 19.6853ZM79.7169 15.0088H77.6569V18.3347H79.7169C80.3195 18.3477 80.8821 18.0337 81.1872 17.5138C81.4924 16.9939 81.4924 16.3496 81.1872 15.8298C80.8821 15.3099 80.3195 14.9958 79.7169 15.0088ZM70.222 22.2606C70.8867 22.264 71.5042 21.9172 71.8473 21.3478L72.9727 22.0984C72.3603 23.0178 71.3266 23.5676 70.222 23.5614C69.3449 23.5741 68.5004 23.2295 67.8825 22.607C67.2646 21.9844 66.9265 21.1373 66.9457 20.2604C66.9008 19.4044 67.208 18.5674 67.7961 17.9438C68.3842 17.3203 69.2019 16.9645 70.059 16.9593C71.3489 16.9955 72.4784 17.8349 72.885 19.0597L73.0348 19.4346L68.6207 21.2609C68.8992 21.8907 69.5338 22.2869 70.222 22.2606ZM71.3342 18.9347C71.1031 18.4768 70.6204 18.2017 70.1086 18.2361C69.6228 18.2581 69.1662 18.4745 68.8416 18.8367C68.5171 19.1989 68.3519 19.6765 68.3832 20.1618L71.3342 18.9347ZM64.7942 13.6567H66.2472V23.3612H64.7965V13.6591L64.7942 13.6567ZM60.6588 26.5249C59.3771 26.5315 58.2196 25.7599 57.7326 24.5744L58.9954 24.0489C59.2599 24.7419 59.9172 25.2063 60.6588 25.224C61.7454 25.224 62.4222 24.5487 62.4222 23.2836V22.8086H62.3663C61.9255 23.302 61.2899 23.5765 60.6285 23.5591C58.861 23.4824 57.4675 22.0272 57.4675 20.2581C57.4675 18.4889 58.861 17.0337 60.6285 16.957C61.2869 16.9412 61.9202 17.2099 62.3663 17.6944H62.4168V17.1565H63.7922V23.0841C63.7945 25.5244 62.3563 26.5249 60.6588 26.5249ZM60.7589 18.2594C59.7204 18.3487 58.9229 19.2177 58.9229 20.26C58.9229 21.3023 59.7204 22.1713 60.7589 22.2606C61.7622 22.1269 62.5113 21.2708 62.5105 20.2586C62.5097 19.2465 61.7593 18.3915 60.7558 18.2594H60.7589ZM62.246 10.2439L59.9796 6.60911L59.999 7.2642V10.2439H59.2454V5.43166H60.0945L62.2561 8.89105L62.2375 8.23519V5.43166H62.9873V10.2439H62.2422H62.246ZM56.0895 10.3479C55.4255 10.3633 54.7857 10.0985 54.3268 9.61833C53.3829 8.61893 53.3829 7.05665 54.3268 6.05726C54.793 5.58825 55.427 5.32452 56.0883 5.32452C56.7496 5.32452 57.3836 5.58825 57.8498 6.05726C58.7956 7.05468 58.7956 8.6178 57.8498 9.61522C57.3911 10.0964 56.751 10.3623 56.0864 10.3479H56.0895ZM54.8802 6.55556C54.2222 7.28259 54.2222 8.38989 54.8802 9.11692C55.5492 9.7834 56.6312 9.7834 57.3003 9.11692C57.9575 8.38903 57.9558 7.28145 57.2964 6.55556C56.6307 5.88917 55.549 5.88917 54.8802 6.55556ZM56.8625 20.2604C56.8675 21.6017 56.0634 22.8137 54.8257 23.3305C53.5879 23.8473 52.1607 23.5668 51.2105 22.6202C50.2603 21.6735 49.9745 20.2474 50.4866 19.0077C50.9988 17.768 52.2077 16.9594 53.549 16.9593C54.4295 16.9456 55.2781 17.2887 55.9016 17.9105C56.5252 18.5323 56.8706 19.3799 56.8594 20.2604H56.8625ZM53.549 18.2594C52.727 18.2007 51.9527 18.651 51.597 19.3944C51.2413 20.1379 51.3767 21.0233 51.9383 21.6266C52.4999 22.2298 53.3733 22.4281 54.1403 22.1264C54.9073 21.8248 55.4117 21.0846 55.4119 20.2604C55.4387 19.7453 55.2552 19.2413 54.9034 18.8641C54.5516 18.4868 54.0617 18.2686 53.5459 18.2594H53.549ZM50.5127 10.1663V10.2439H49.759V6.15894H48.4581V5.43166H51.8104V6.15894H50.5096V10.1663H50.5127ZM47.1829 10.2439H47.1053V5.43166H47.8582V10.2439H47.1829ZM49.6309 20.2565C49.6363 21.5983 48.8321 22.8108 47.594 23.3279C46.3559 23.845 44.9281 23.5646 43.9776 22.6176C43.0271 21.6707 42.7413 20.244 43.2537 19.0039C43.7662 17.7639 44.9757 16.9552 46.3175 16.9555C47.1992 16.9409 48.0491 17.2841 48.6735 17.9069C49.2978 18.5296 49.6432 19.3787 49.6309 20.2604V20.2565ZM46.3175 18.2555C45.4954 18.1969 44.7211 18.6471 44.3654 19.3906C44.0097 20.1341 44.1451 21.0194 44.7067 21.6227C45.2683 22.2259 46.1417 22.4242 46.9087 22.1225C47.6757 21.8209 48.1801 21.0807 48.1803 20.2565C48.206 19.7426 48.0224 19.2401 47.6714 18.8638C47.3204 18.4875 46.832 18.2695 46.3175 18.2594V18.2555ZM43.6443 10.1663V10.2439H42.8899V6.15894H41.589V5.43166H44.9452V6.15894H43.6443V10.1663ZM37.7183 14.7085C35.6607 14.7085 33.9927 16.3765 33.9927 18.4341C33.9927 20.4917 35.6607 22.1597 37.7183 22.1597C38.6871 22.1989 39.6273 21.8268 40.3068 21.1351C40.7521 20.6498 41.0206 20.0285 41.069 19.3717H37.7183V17.9746H42.432C42.4861 18.2629 42.5121 18.5559 42.5096 18.8493C42.5491 20.058 42.1136 21.2341 41.2964 22.1255C40.3658 23.0954 39.0636 23.6192 37.7206 23.5638C35.8739 23.5865 34.1576 22.6143 33.2276 21.0187C32.2977 19.423 32.2977 17.4505 33.2276 15.8549C34.1576 14.2593 35.8739 13.2871 37.7206 13.3098C39.0342 13.2898 40.3005 13.7992 41.2343 14.7232L40.2455 15.7082C39.5678 15.0548 38.6595 14.6955 37.7183 14.7085ZM38.2469 5.43166H41.1187V6.15894H39.0036V7.47842H40.9161V8.1925H39.0036V9.51199H41.1249V10.2439H38.2531V5.43166H38.2469ZM36.9437 9.63463C36.4827 10.1116 35.8408 10.3704 35.1779 10.3464C33.7916 10.3464 32.6677 9.22255 32.6677 7.83624C32.6677 6.44993 33.7916 5.32611 35.1779 5.32611C35.517 5.32491 35.8528 5.39333 36.1644 5.52713C36.4561 5.64612 36.7157 5.83227 36.9219 6.07045L36.9677 6.12556L36.9173 6.17523L36.4477 6.64482L36.3934 6.5804C36.0922 6.22545 35.6427 6.0314 35.1779 6.0557C34.3734 6.05561 33.6682 6.59363 33.4558 7.36958C33.2434 8.14554 33.5763 8.96769 34.2687 9.37733C34.9611 9.78697 35.8419 9.68288 36.4198 9.12313C36.6261 8.90044 36.7513 8.61468 36.7752 8.31203H35.0964V7.59718H37.4955L37.5072 7.6616C37.5291 7.78197 37.5403 7.90405 37.5405 8.0264C37.5691 8.62185 37.3525 9.20301 36.9413 9.63463H36.9437Z" fill="#0F2852"/>
<path fill-rule="evenodd" clip-rule="evenodd" d="M10.1629 25.8236C10.2493 25.7895 10.3334 25.749 10.4144 25.7026L21.951 19.1449L19.2158 16.3088L10.1629 25.8236ZM22.4616 18.8551L19.6083 15.8964L22.4587 12.9008L26.384 15.1242C27.3511 15.6716 26.8564 16.3569 26.384 16.6255L22.4616 18.8551ZM21.9482 12.6119L10.4144 6.07694C10.2891 6.00788 10.1526 5.96331 10.0118 5.94543L19.2132 15.4866L21.9486 12.6118L21.9482 12.6119ZM9.33534 6.06325L18.8207 15.8989L9.38088 25.8196C9.10539 25.6382 8.95771 25.2449 8.95521 24.7357C8.95047 23.761 8.87544 8.28782 8.86978 7.12662C8.86702 6.57065 9.06209 6.23101 9.33534 6.06325Z" fill="#0F2852"/>
</g>
</g>
</g>
<defs>
<clipPath id="clip0_0_1">
<rect width="1920" height="1080" fill="white" transform="translate(-1380 -793)"/>
</clipPath>
<clipPath id="clip1_0_1">
<rect width="105.605" height="31.0602" fill="white" transform="translate(0.227295 0.356079)"/>
</clipPath>
</defs>
</svg>
