<svg width="268" height="78" viewBox="0 0 268 78" fill="none" xmlns="http://www.w3.org/2000/svg">
<path d="M69.8517 44.4438H65.7068V48.6637H69.8517V44.4438Z" fill="#306FD5"/>
<path d="M75.8329 44.4438H71.6656V48.6637H75.8329V44.4438Z" fill="#306FD5"/>
<path d="M70.7212 12.004C63.3832 12.004 57.1471 14.6123 51.9603 19.7991C46.7661 24.9859 44.1652 31.2295 44.1652 38.5375C44.1652 42.7798 45.0347 46.6924 46.826 50.1927V50.2976C46.826 50.2976 46.8035 50.3501 46.8035 50.425L43.8354 53.3632L47.4406 56.9685L70.6762 33.7329L94.0166 57.0509L97.7268 53.3707L95.3508 50.9947L94.7587 50.4325C94.7062 50.3801 94.7062 50.3276 94.6837 50.3276V50.3051C94.6837 50.3051 94.7062 50.2302 94.7062 50.2002C96.4452 46.6474 97.3146 42.7648 97.3146 38.5449C97.3146 31.2295 94.7062 24.9934 89.5419 19.8066C84.3477 14.6198 78.0666 12.0115 70.7287 12.0115L70.7212 12.004ZM51.0384 46.1302C51.0159 46.1827 50.9635 46.1827 50.9335 46.1827H50.836C50.7836 46.1302 50.7611 46.0778 50.7611 46.0778C49.8916 43.7242 49.4344 41.2208 49.4344 38.5375C49.4344 32.6611 51.5331 27.6467 55.723 23.5018C59.8379 19.3119 64.8523 17.2432 70.7287 17.2432C76.605 17.2432 81.6718 19.3119 85.8392 23.5018C89.9766 27.6467 92.0229 32.6536 92.0229 38.5375C92.0229 41.1683 91.6407 43.6493 90.8761 45.9503C90.8462 45.9728 90.8236 46.0253 90.8236 46.0778L90.7187 46.3326L86.8586 42.495V33.9278H81.7468V37.3757L70.8036 26.41L51.0384 46.1227V46.1302Z" fill="#306FD5"/>
<path d="M86.4689 52.9585C86.3415 53.0859 86.214 53.1908 86.109 53.3182L86.0791 53.3407C84.4676 54.9222 82.8861 56.1815 81.3495 57.0509C78.2015 58.8123 74.7011 59.7118 70.841 59.7118C66.981 59.7118 63.5331 58.8198 60.4375 57.0509C58.8035 56.1065 57.2671 54.9297 55.8355 53.5206C55.783 53.4682 55.7305 53.4157 55.708 53.3707C55.4757 53.1683 55.2957 52.9585 55.1159 52.7786L51.4057 56.4888C51.5631 56.6911 51.7355 56.8485 51.9453 57.0509C51.9978 57.1034 52.0428 57.1559 52.1252 57.2008C57.2895 62.3876 63.5256 64.996 70.841 64.996C78.1565 64.996 84.4377 62.3876 89.6544 57.2008C89.7069 57.1484 89.7593 57.0959 89.7818 57.0509C89.8867 56.946 89.9842 56.8186 90.0891 56.6911L86.4614 52.9585H86.4689Z" fill="#306FD5"/>
<path d="M75.8329 54.6974V50.4775H71.6656V54.6974H75.8329Z" fill="#306FD5"/>
<path d="M69.8517 54.6974V50.4775H65.7068V54.6974H69.8517Z" fill="#306FD5"/>
<g filter="url(#filter0_d_568_107)">
<mask id="path-7-outside-1_568_107" maskUnits="userSpaceOnUse" x="114.751" y="27.1208" width="150" height="29" fill="black">
<rect fill="white" x="114.751" y="27.1208" width="150" height="29"/>
<path d="M121.831 48.1546V31.399H115.751V28.3169H131.442V31.399H125.362V48.1546H121.831Z"/>
<path d="M133.478 40.085H140.37C140.37 38.3478 139.39 36.8348 137.204 36.8348C135.215 36.8348 133.618 38.2077 133.478 40.085ZM143.733 41.5981C143.733 41.9063 143.733 42.1865 143.705 42.4947H133.478C133.618 44.4 135.355 45.801 137.316 45.801C138.997 45.801 140.118 45.1285 140.875 44.0638L143.116 45.857C141.799 47.6502 139.894 48.5469 137.344 48.5469C133.197 48.5469 130.115 45.885 130.115 41.514C130.115 37.171 133.169 34.3131 137.232 34.3131C140.987 34.3131 143.733 36.7507 143.733 41.5981Z"/>
<path d="M156.544 36.3585L154.358 38.2918C153.77 37.5072 152.649 36.8348 151.416 36.8348C150.351 36.8348 149.259 37.2271 149.259 38.2918C149.259 39.3285 150.295 39.6087 152.173 40.057C154.162 40.5333 156.516 41.43 156.516 44.0638C156.516 47.342 153.854 48.5469 150.912 48.5469C148.838 48.5469 146.681 47.7623 145.392 46.3333L147.606 44.2599C148.334 45.2126 149.595 45.9411 151.052 45.9411C152.033 45.9411 153.209 45.5488 153.209 44.344C153.209 43.2232 152.173 42.887 150.127 42.4106C148.138 41.9343 146.149 41.1217 146.149 38.6C146.149 35.6019 148.838 34.3131 151.5 34.3131C153.434 34.3131 155.451 34.9855 156.544 36.3585Z"/>
<path d="M159.859 37.3952H157.506V34.7053H159.859V30.8106H163.166V34.7053H166.528V37.3952H163.166V43.6435C163.166 44.8483 163.446 45.7169 164.931 45.7169C165.379 45.7169 165.968 45.6328 166.36 45.4367L166.472 48.0705C165.884 48.2947 164.987 48.4348 164.23 48.4348C160.672 48.4348 159.859 46.2493 159.859 43.6715V37.3952Z"/>
<path d="M176.134 48.1546V28.3169H182.607C187.146 28.3169 190.088 29.914 190.088 34.0609C190.088 38.4319 186.585 39.9449 182.382 39.9449H179.665V48.1546H176.134ZM179.665 36.9749H182.13C184.428 36.9749 186.529 36.4145 186.529 34.0609C186.529 31.7073 184.428 31.287 182.242 31.287H179.665V36.9749Z"/>
<path d="M191.782 48.1546V34.7053H195.004V36.9469H195.06C195.788 35.4058 197.217 34.3131 198.983 34.3131C199.235 34.3131 199.571 34.3411 199.795 34.3971V37.4792C199.347 37.3672 199.067 37.3391 198.758 37.3391C195.732 37.3391 195.144 39.9729 195.144 40.9536V48.1546H191.782Z"/>
<path d="M200.711 41.3739C200.711 37.143 203.961 34.3131 208.024 34.3131C212.087 34.3131 215.337 37.143 215.337 41.3739C215.337 45.6048 212.087 48.5469 208.024 48.5469C203.961 48.5469 200.711 45.6048 200.711 41.3739ZM204.129 41.3739C204.129 43.4754 205.362 45.7449 208.024 45.7449C210.686 45.7449 211.919 43.4754 211.919 41.3739C211.919 39.2725 210.686 37.0589 208.024 37.0589C205.362 37.0589 204.129 39.2725 204.129 41.3739Z"/>
<path d="M218.653 34.7053H222.015V48.9671C222.015 52.1894 221.147 54.8792 217.14 54.8792C216.58 54.8792 215.963 54.7952 215.627 54.7111L215.907 51.8531C216.215 51.9372 216.58 51.9652 216.832 51.9652C218.429 51.9652 218.653 50.6483 218.653 49.1072V34.7053ZM218.177 30.1382C218.177 29.0734 219.073 28.1208 220.306 28.1208C221.539 28.1208 222.492 28.9894 222.492 30.1382C222.492 31.287 221.539 32.1556 220.306 32.1556C219.073 32.1556 218.177 31.2029 218.177 30.1382Z"/>
<path d="M228.672 40.085H235.565C235.565 38.3478 234.584 36.8348 232.399 36.8348C230.409 36.8348 228.812 38.2077 228.672 40.085ZM238.927 41.5981C238.927 41.9063 238.927 42.1865 238.899 42.4947H228.672C228.812 44.4 230.549 45.801 232.511 45.801C234.192 45.801 235.313 45.1285 236.069 44.0638L238.311 45.857C236.994 47.6502 235.089 48.5469 232.539 48.5469C228.392 48.5469 225.31 45.885 225.31 41.514C225.31 37.171 228.364 34.3131 232.427 34.3131C236.181 34.3131 238.927 36.7507 238.927 41.5981Z"/>
<path d="M253.671 36.4145L251.374 38.4319C250.841 37.6754 249.693 37.115 248.6 37.115C246.134 37.115 244.901 39.3285 244.901 41.43C244.901 43.5314 246.162 45.7449 248.712 45.7449C249.749 45.7449 250.898 45.3246 251.542 44.5401L253.643 46.6696C252.523 47.8744 250.673 48.5469 248.684 48.5469C244.705 48.5469 241.399 45.913 241.399 41.43C241.399 37.0589 244.649 34.3131 248.6 34.3131C250.561 34.3131 252.607 35.0976 253.671 36.4145Z"/>
<path d="M256.285 37.3952H253.931V34.7053H256.285V30.8106H259.591V34.7053H262.954V37.3952H259.591V43.6435C259.591 44.8483 259.872 45.7169 261.357 45.7169C261.805 45.7169 262.393 45.6328 262.786 45.4367L262.898 48.0705C262.309 48.2947 261.413 48.4348 260.656 48.4348C257.098 48.4348 256.285 46.2493 256.285 43.6715V37.3952Z"/>
</mask>
<path d="M121.831 48.1546V31.399H115.751V28.3169H131.442V31.399H125.362V48.1546H121.831Z" fill="#303030"/>
<path d="M133.478 40.085H140.37C140.37 38.3478 139.39 36.8348 137.204 36.8348C135.215 36.8348 133.618 38.2077 133.478 40.085ZM143.733 41.5981C143.733 41.9063 143.733 42.1865 143.705 42.4947H133.478C133.618 44.4 135.355 45.801 137.316 45.801C138.997 45.801 140.118 45.1285 140.875 44.0638L143.116 45.857C141.799 47.6502 139.894 48.5469 137.344 48.5469C133.197 48.5469 130.115 45.885 130.115 41.514C130.115 37.171 133.169 34.3131 137.232 34.3131C140.987 34.3131 143.733 36.7507 143.733 41.5981Z" fill="#303030"/>
<path d="M156.544 36.3585L154.358 38.2918C153.77 37.5072 152.649 36.8348 151.416 36.8348C150.351 36.8348 149.259 37.2271 149.259 38.2918C149.259 39.3285 150.295 39.6087 152.173 40.057C154.162 40.5333 156.516 41.43 156.516 44.0638C156.516 47.342 153.854 48.5469 150.912 48.5469C148.838 48.5469 146.681 47.7623 145.392 46.3333L147.606 44.2599C148.334 45.2126 149.595 45.9411 151.052 45.9411C152.033 45.9411 153.209 45.5488 153.209 44.344C153.209 43.2232 152.173 42.887 150.127 42.4106C148.138 41.9343 146.149 41.1217 146.149 38.6C146.149 35.6019 148.838 34.3131 151.5 34.3131C153.434 34.3131 155.451 34.9855 156.544 36.3585Z" fill="#303030"/>
<path d="M159.859 37.3952H157.506V34.7053H159.859V30.8106H163.166V34.7053H166.528V37.3952H163.166V43.6435C163.166 44.8483 163.446 45.7169 164.931 45.7169C165.379 45.7169 165.968 45.6328 166.36 45.4367L166.472 48.0705C165.884 48.2947 164.987 48.4348 164.23 48.4348C160.672 48.4348 159.859 46.2493 159.859 43.6715V37.3952Z" fill="#303030"/>
<path d="M176.134 48.1546V28.3169H182.607C187.146 28.3169 190.088 29.914 190.088 34.0609C190.088 38.4319 186.585 39.9449 182.382 39.9449H179.665V48.1546H176.134ZM179.665 36.9749H182.13C184.428 36.9749 186.529 36.4145 186.529 34.0609C186.529 31.7073 184.428 31.287 182.242 31.287H179.665V36.9749Z" fill="#303030"/>
<path d="M191.782 48.1546V34.7053H195.004V36.9469H195.06C195.788 35.4058 197.217 34.3131 198.983 34.3131C199.235 34.3131 199.571 34.3411 199.795 34.3971V37.4792C199.347 37.3672 199.067 37.3391 198.758 37.3391C195.732 37.3391 195.144 39.9729 195.144 40.9536V48.1546H191.782Z" fill="#303030"/>
<path d="M200.711 41.3739C200.711 37.143 203.961 34.3131 208.024 34.3131C212.087 34.3131 215.337 37.143 215.337 41.3739C215.337 45.6048 212.087 48.5469 208.024 48.5469C203.961 48.5469 200.711 45.6048 200.711 41.3739ZM204.129 41.3739C204.129 43.4754 205.362 45.7449 208.024 45.7449C210.686 45.7449 211.919 43.4754 211.919 41.3739C211.919 39.2725 210.686 37.0589 208.024 37.0589C205.362 37.0589 204.129 39.2725 204.129 41.3739Z" fill="#303030"/>
<path d="M218.653 34.7053H222.015V48.9671C222.015 52.1894 221.147 54.8792 217.14 54.8792C216.58 54.8792 215.963 54.7952 215.627 54.7111L215.907 51.8531C216.215 51.9372 216.58 51.9652 216.832 51.9652C218.429 51.9652 218.653 50.6483 218.653 49.1072V34.7053ZM218.177 30.1382C218.177 29.0734 219.073 28.1208 220.306 28.1208C221.539 28.1208 222.492 28.9894 222.492 30.1382C222.492 31.287 221.539 32.1556 220.306 32.1556C219.073 32.1556 218.177 31.2029 218.177 30.1382Z" fill="#303030"/>
<path d="M228.672 40.085H235.565C235.565 38.3478 234.584 36.8348 232.399 36.8348C230.409 36.8348 228.812 38.2077 228.672 40.085ZM238.927 41.5981C238.927 41.9063 238.927 42.1865 238.899 42.4947H228.672C228.812 44.4 230.549 45.801 232.511 45.801C234.192 45.801 235.313 45.1285 236.069 44.0638L238.311 45.857C236.994 47.6502 235.089 48.5469 232.539 48.5469C228.392 48.5469 225.31 45.885 225.31 41.514C225.31 37.171 228.364 34.3131 232.427 34.3131C236.181 34.3131 238.927 36.7507 238.927 41.5981Z" fill="#303030"/>
<path d="M253.671 36.4145L251.374 38.4319C250.841 37.6754 249.693 37.115 248.6 37.115C246.134 37.115 244.901 39.3285 244.901 41.43C244.901 43.5314 246.162 45.7449 248.712 45.7449C249.749 45.7449 250.898 45.3246 251.542 44.5401L253.643 46.6696C252.523 47.8744 250.673 48.5469 248.684 48.5469C244.705 48.5469 241.399 45.913 241.399 41.43C241.399 37.0589 244.649 34.3131 248.6 34.3131C250.561 34.3131 252.607 35.0976 253.671 36.4145Z" fill="#303030"/>
<path d="M256.285 37.3952H253.931V34.7053H256.285V30.8106H259.591V34.7053H262.954V37.3952H259.591V43.6435C259.591 44.8483 259.872 45.7169 261.357 45.7169C261.805 45.7169 262.393 45.6328 262.786 45.4367L262.898 48.0705C262.309 48.2947 261.413 48.4348 260.656 48.4348C257.098 48.4348 256.285 46.2493 256.285 43.6715V37.3952Z" fill="#303030"/>
<path d="M121.831 48.1546V31.399H115.751V28.3169H131.442V31.399H125.362V48.1546H121.831Z" stroke="black" stroke-width="2" mask="url(#path-7-outside-1_568_107)"/>
<path d="M133.478 40.085H140.37C140.37 38.3478 139.39 36.8348 137.204 36.8348C135.215 36.8348 133.618 38.2077 133.478 40.085ZM143.733 41.5981C143.733 41.9063 143.733 42.1865 143.705 42.4947H133.478C133.618 44.4 135.355 45.801 137.316 45.801C138.997 45.801 140.118 45.1285 140.875 44.0638L143.116 45.857C141.799 47.6502 139.894 48.5469 137.344 48.5469C133.197 48.5469 130.115 45.885 130.115 41.514C130.115 37.171 133.169 34.3131 137.232 34.3131C140.987 34.3131 143.733 36.7507 143.733 41.5981Z" stroke="black" stroke-width="2" mask="url(#path-7-outside-1_568_107)"/>
<path d="M156.544 36.3585L154.358 38.2918C153.77 37.5072 152.649 36.8348 151.416 36.8348C150.351 36.8348 149.259 37.2271 149.259 38.2918C149.259 39.3285 150.295 39.6087 152.173 40.057C154.162 40.5333 156.516 41.43 156.516 44.0638C156.516 47.342 153.854 48.5469 150.912 48.5469C148.838 48.5469 146.681 47.7623 145.392 46.3333L147.606 44.2599C148.334 45.2126 149.595 45.9411 151.052 45.9411C152.033 45.9411 153.209 45.5488 153.209 44.344C153.209 43.2232 152.173 42.887 150.127 42.4106C148.138 41.9343 146.149 41.1217 146.149 38.6C146.149 35.6019 148.838 34.3131 151.5 34.3131C153.434 34.3131 155.451 34.9855 156.544 36.3585Z" stroke="black" stroke-width="2" mask="url(#path-7-outside-1_568_107)"/>
<path d="M159.859 37.3952H157.506V34.7053H159.859V30.8106H163.166V34.7053H166.528V37.3952H163.166V43.6435C163.166 44.8483 163.446 45.7169 164.931 45.7169C165.379 45.7169 165.968 45.6328 166.36 45.4367L166.472 48.0705C165.884 48.2947 164.987 48.4348 164.23 48.4348C160.672 48.4348 159.859 46.2493 159.859 43.6715V37.3952Z" stroke="black" stroke-width="2" mask="url(#path-7-outside-1_568_107)"/>
<path d="M176.134 48.1546V28.3169H182.607C187.146 28.3169 190.088 29.914 190.088 34.0609C190.088 38.4319 186.585 39.9449 182.382 39.9449H179.665V48.1546H176.134ZM179.665 36.9749H182.13C184.428 36.9749 186.529 36.4145 186.529 34.0609C186.529 31.7073 184.428 31.287 182.242 31.287H179.665V36.9749Z" stroke="black" stroke-width="2" mask="url(#path-7-outside-1_568_107)"/>
<path d="M191.782 48.1546V34.7053H195.004V36.9469H195.06C195.788 35.4058 197.217 34.3131 198.983 34.3131C199.235 34.3131 199.571 34.3411 199.795 34.3971V37.4792C199.347 37.3672 199.067 37.3391 198.758 37.3391C195.732 37.3391 195.144 39.9729 195.144 40.9536V48.1546H191.782Z" stroke="black" stroke-width="2" mask="url(#path-7-outside-1_568_107)"/>
<path d="M200.711 41.3739C200.711 37.143 203.961 34.3131 208.024 34.3131C212.087 34.3131 215.337 37.143 215.337 41.3739C215.337 45.6048 212.087 48.5469 208.024 48.5469C203.961 48.5469 200.711 45.6048 200.711 41.3739ZM204.129 41.3739C204.129 43.4754 205.362 45.7449 208.024 45.7449C210.686 45.7449 211.919 43.4754 211.919 41.3739C211.919 39.2725 210.686 37.0589 208.024 37.0589C205.362 37.0589 204.129 39.2725 204.129 41.3739Z" stroke="black" stroke-width="2" mask="url(#path-7-outside-1_568_107)"/>
<path d="M218.653 34.7053H222.015V48.9671C222.015 52.1894 221.147 54.8792 217.14 54.8792C216.58 54.8792 215.963 54.7952 215.627 54.7111L215.907 51.8531C216.215 51.9372 216.58 51.9652 216.832 51.9652C218.429 51.9652 218.653 50.6483 218.653 49.1072V34.7053ZM218.177 30.1382C218.177 29.0734 219.073 28.1208 220.306 28.1208C221.539 28.1208 222.492 28.9894 222.492 30.1382C222.492 31.287 221.539 32.1556 220.306 32.1556C219.073 32.1556 218.177 31.2029 218.177 30.1382Z" stroke="black" stroke-width="2" mask="url(#path-7-outside-1_568_107)"/>
<path d="M228.672 40.085H235.565C235.565 38.3478 234.584 36.8348 232.399 36.8348C230.409 36.8348 228.812 38.2077 228.672 40.085ZM238.927 41.5981C238.927 41.9063 238.927 42.1865 238.899 42.4947H228.672C228.812 44.4 230.549 45.801 232.511 45.801C234.192 45.801 235.313 45.1285 236.069 44.0638L238.311 45.857C236.994 47.6502 235.089 48.5469 232.539 48.5469C228.392 48.5469 225.31 45.885 225.31 41.514C225.31 37.171 228.364 34.3131 232.427 34.3131C236.181 34.3131 238.927 36.7507 238.927 41.5981Z" stroke="black" stroke-width="2" mask="url(#path-7-outside-1_568_107)"/>
<path d="M253.671 36.4145L251.374 38.4319C250.841 37.6754 249.693 37.115 248.6 37.115C246.134 37.115 244.901 39.3285 244.901 41.43C244.901 43.5314 246.162 45.7449 248.712 45.7449C249.749 45.7449 250.898 45.3246 251.542 44.5401L253.643 46.6696C252.523 47.8744 250.673 48.5469 248.684 48.5469C244.705 48.5469 241.399 45.913 241.399 41.43C241.399 37.0589 244.649 34.3131 248.6 34.3131C250.561 34.3131 252.607 35.0976 253.671 36.4145Z" stroke="black" stroke-width="2" mask="url(#path-7-outside-1_568_107)"/>
<path d="M256.285 37.3952H253.931V34.7053H256.285V30.8106H259.591V34.7053H262.954V37.3952H259.591V43.6435C259.591 44.8483 259.872 45.7169 261.357 45.7169C261.805 45.7169 262.393 45.6328 262.786 45.4367L262.898 48.0705C262.309 48.2947 261.413 48.4348 260.656 48.4348C257.098 48.4348 256.285 46.2493 256.285 43.6715V37.3952Z" stroke="black" stroke-width="2" mask="url(#path-7-outside-1_568_107)"/>
</g>
<defs>
<filter id="filter0_d_568_107" x="110.751" y="27.1208" width="157.203" height="36.7584" filterUnits="userSpaceOnUse" color-interpolation-filters="sRGB">
<feFlood flood-opacity="0" result="BackgroundImageFix"/>
<feColorMatrix in="SourceAlpha" type="matrix" values="0 0 0 0 0 0 0 0 0 0 0 0 0 0 0 0 0 0 127 0" result="hardAlpha"/>
<feOffset dy="4"/>
<feGaussianBlur stdDeviation="2"/>
<feComposite in2="hardAlpha" operator="out"/>
<feColorMatrix type="matrix" values="0 0 0 0 0 0 0 0 0 0 0 0 0 0 0 0 0 0 0.25 0"/>
<feBlend mode="normal" in2="BackgroundImageFix" result="effect1_dropShadow_568_107"/>
<feBlend mode="normal" in="SourceGraphic" in2="effect1_dropShadow_568_107" result="shape"/>
</filter>
</defs>
</svg>
